<?xml version="1.0" encoding="UTF-8" standalone="no"?>
<!-- Created with Inkscape (http://www.inkscape.org/) -->

<svg
   version="1.1"
   id="svg2"
   width="894.70862"
   height="471.48642"
   viewBox="0 0 894.70865 471.48642"
   sodipodi:docname="rockmelon-qa-logo.svg"
   xmlns:inkscape="http://www.inkscape.org/namespaces/inkscape"
   xmlns:sodipodi="http://sodipodi.sourceforge.net/DTD/sodipodi-0.dtd"
   xmlns="http://www.w3.org/2000/svg"
   xmlns:svg="http://www.w3.org/2000/svg">
  <sodipodi:namedview
     id="namedview67"
     pagecolor="#ffffff"
     bordercolor="#000000"
     borderopacity="0.25"
     inkscape:showpageshadow="2"
     inkscape:pageopacity="0.0"
     inkscape:pagecheckerboard="0"
     inkscape:deskcolor="#d1d1d1"
     showgrid="false" />
  <defs
     id="defs6">
    <clipPath
       clipPathUnits="userSpaceOnUse"
       id="clipPath18">
      <path
         d="M 0,720 H 1024 V 0 H 0 Z"
         id="path16" />
    </clipPath>
  </defs>
  <g
     id="g10"
     transform="matrix(1.3333333,0,0,-1.3333333,-234.95798,715.73306)">
    <g
       id="g12">
      <g
         id="g14"
         clip-path="url(#clipPath18)">
        <g
           id="g20"
           transform="translate(633.8457,328.0625)">
          <path
             d="m 0,0 c -43.653,-40.844 -109.908,-52.321 -166.472,-23.509 -70.046,35.679 -99.446,121.331 -66.051,192.493 6.515,13.882 14.92,26.258 24.753,36.964 3.325,3.62 9.001,3.732 12.465,0.245 l 15.509,-15.615 C -189.35,181.02 -197.521,169.77 -203.844,156.993 -234.687,94.672 -210.561,19.96 -149.046,-12.46 -98.337,-39.186 -38.279,-28.366 0.117,9.519 2.751,6.873 2.726,2.55 0,0"
             style="fill:#014f2d;fill-opacity:1;fill-rule:nonzero;stroke:none"
             id="path22" />
        </g>
        <g
           id="g24"
           transform="translate(621.6123,336.9561)">
          <path
             d="m 0,0 c -35.452,-29.909 -86.693,-37.67 -130.863,-15.554 -58.549,29.318 -82.723,101.232 -53.781,159.968 4.51,9.151 10.031,17.472 16.366,24.891 3.248,3.802 9.082,3.962 12.607,0.414 L 0.481,12.573 C 3.997,9.036 3.812,3.216 0,0"
             style="fill:#e56d00;fill-opacity:1;fill-rule:nonzero;stroke:none"
             id="path26" />
        </g>
        <g
           id="g28"
           transform="translate(536.1172,359.1274)">
          <path
             d="M 0,0 -4.559,4.726 13.51,22.146 28.832,18.569 49.919,38.902 54.476,34.175 30.816,11.364 15.495,14.94 Z"
             style="fill:#ffffff;fill-opacity:1;fill-rule:nonzero;stroke:none"
             id="path30" />
        </g>
        <g
           id="g32"
           transform="translate(536.3652,401.5361)">
          <path
             d="m 0,0 -4.558,4.727 23.991,23.129 4.556,-4.727 z"
             style="fill:#ffffff;fill-opacity:1;fill-rule:nonzero;stroke:none"
             id="path34" />
        </g>
        <g
           id="g36"
           transform="translate(482.4663,388.897)">
          <path
             d="M 0,0 -4.558,4.726 24.096,32.351 23.098,49.767 43.229,69.175 47.788,64.448 29.827,47.133 30.822,29.718 Z"
             style="fill:#ffffff;fill-opacity:1;fill-rule:nonzero;stroke:none"
             id="path38" />
        </g>
        <g
           id="g40"
           transform="translate(470.5913,427.0903)">
          <path
             d="M 0,0 -4.559,4.727 1.412,10.482 -0.258,26.924 30.46,56.542 35.018,51.815 6.597,24.413 8.267,7.971 Z"
             style="fill:#ffffff;fill-opacity:1;fill-rule:nonzero;stroke:none"
             id="path42" />
        </g>
        <g
           id="g44"
           transform="translate(464.4614,429.1802)">
          <path
             d="m 0,0 c -2.703,1.336 -6.072,0.916 -8.364,-1.295 -2.917,-2.813 -3.001,-7.473 -0.189,-10.391 1.361,-1.413 3.193,-2.209 5.156,-2.247 1.962,-0.036 3.822,0.695 5.233,2.057 2.918,2.813 3.002,7.474 0.189,10.392 C 1.423,-0.859 0.737,-0.364 0,0 m -9.427,-19.068 c -1.419,0.701 -2.72,1.651 -3.854,2.825 -5.323,5.524 -5.163,14.349 0.36,19.675 2.675,2.578 6.195,3.963 9.911,3.895 3.717,-0.068 7.184,-1.58 9.762,-4.254 5.326,-5.524 5.165,-14.35 -0.357,-19.675 -2.676,-2.579 -6.196,-3.963 -9.912,-3.895 -2.086,0.039 -4.093,0.53 -5.91,1.429"
             style="fill:#ffffff;fill-opacity:1;fill-rule:nonzero;stroke:none"
             id="path46" />
        </g>
        <g
           id="g48"
           transform="translate(475.7974,390.4653)">
          <path
             d="m 0,0 c -2.703,1.337 -6.071,0.917 -8.363,-1.293 -2.917,-2.814 -3.003,-7.474 -0.19,-10.391 2.807,-2.917 7.473,-3.004 10.389,-0.189 1.414,1.361 2.211,3.192 2.248,5.155 C 4.12,-4.755 3.389,-2.896 2.027,-1.484 1.425,-0.859 0.737,-0.364 0,0 m -9.443,-19.051 c -1.395,0.69 -2.696,1.627 -3.836,2.81 -5.325,5.523 -5.164,14.349 0.358,19.673 5.524,5.324 14.35,5.155 19.674,-0.358 5.325,-5.523 5.164,-14.349 -0.358,-19.674 l -10e-4,-0.002 c -4.34,-4.182 -10.72,-4.98 -15.837,-2.449"
             style="fill:#ffffff;fill-opacity:1;fill-rule:nonzero;stroke:none"
             id="path50" />
        </g>
        <g
           id="g52"
           transform="translate(530.3887,403.7891)">
          <path
             d="m 0,0 c -0.959,0.474 -2.02,0.734 -3.121,0.754 -1.963,0.037 -3.822,-0.694 -5.234,-2.057 -2.916,-2.812 -3.002,-7.473 -0.19,-10.39 2.812,-2.919 7.475,-3.002 10.391,-0.19 2.917,2.812 3.001,7.473 0.189,10.39 C 1.437,-0.873 0.749,-0.371 0,0 m -9.416,-19.077 c -1.42,0.702 -2.723,1.652 -3.855,2.826 -2.579,2.676 -3.962,6.195 -3.896,9.911 0.067,3.717 1.579,7.183 4.254,9.764 2.676,2.579 6.197,3.962 9.913,3.894 3.714,-0.067 7.179,-1.577 9.762,-4.255 2.578,-2.674 3.962,-6.194 3.895,-9.91 -0.067,-3.716 -1.579,-7.183 -4.254,-9.763 -2.676,-2.58 -6.194,-3.962 -9.911,-3.895 -2.085,0.039 -4.094,0.531 -5.908,1.428"
             style="fill:#ffffff;fill-opacity:1;fill-rule:nonzero;stroke:none"
             id="path54" />
        </g>
        <g
           id="g56"
           transform="translate(529.9883,361.2163)">
          <path
             d="m 0,0 c -2.705,1.337 -6.072,0.916 -8.363,-1.294 -2.918,-2.813 -3.002,-7.474 -0.191,-10.39 2.812,-2.919 7.475,-3.005 10.391,-0.19 2.917,2.812 3.002,7.472 0.189,10.389 C 1.424,-0.859 0.736,-0.365 0,0 m -9.443,-19.052 c -1.396,0.69 -2.696,1.628 -3.837,2.81 -5.324,5.524 -5.164,14.35 0.358,19.674 5.526,5.323 14.351,5.154 19.674,-0.359 5.325,-5.524 5.165,-14.35 -0.357,-19.674 l -10e-4,-0.001 c -4.34,-4.184 -10.72,-4.981 -15.837,-2.45"
             style="fill:#ffffff;fill-opacity:1;fill-rule:nonzero;stroke:none"
             id="path58" />
        </g>
        <g
           id="g60"
           transform="translate(221.3955,228.873)">
          <path
             d="m 0,0 c 0.92,0 1.839,0.205 2.658,0.613 2.35,1.022 3.884,3.373 3.884,5.928 0,2.352 -1.227,3.986 -1.942,4.702 C 3.782,12.062 2.249,13.082 0,13.082 H -32.4 V -0.103 Z m 12.674,-32.911 6.541,-12.777 H 4.906 l -6.541,12.777 -6.848,13.389 -0.307,0.614 c -2.249,3.679 -6.235,6.132 -10.835,6.132 H -32.4 V -45.688 H -45.177 V 25.859 H 0 c 5.315,0 10.119,-2.147 13.594,-5.621 3.475,-3.476 5.621,-8.28 5.621,-13.594 0,-7.768 -4.599,-14.514 -11.243,-17.581 -1.737,-0.817 -3.577,-1.329 -5.519,-1.532 z"
             style="fill:#014f2d;fill-opacity:1;fill-rule:nonzero;stroke:none"
             id="path62" />
        </g>
        <g
           id="g64"
           transform="translate(305.2104,219.1631)">
          <path
             d="m 0,0 c 0,12.674 -10.323,22.998 -22.997,22.998 -12.674,0 -22.997,-10.324 -22.997,-22.998 0,-12.674 10.323,-22.998 22.997,-22.998 C -10.323,-22.998 0,-12.674 0,0 m 12.776,0 c 0,-19.727 -16.047,-35.773 -35.773,-35.773 -19.727,0 -35.774,16.046 -35.774,35.773 0,19.728 16.047,35.773 35.774,35.773 19.726,0 35.773,-16.045 35.773,-35.773"
             style="fill:#014f2d;fill-opacity:1;fill-rule:nonzero;stroke:none"
             id="path66" />
        </g>
        <g
           id="g68"
           transform="translate(335.4687,219.1631)">
          <path
             d="M 0,0 C 0,-12.674 10.323,-22.998 22.997,-22.998 H 58.771 V -35.773 H 22.997 c -19.726,0 -35.773,16.046 -35.773,35.773 0,19.728 16.047,35.773 35.773,35.773 H 58.771 V 22.998 H 22.997 C 10.323,22.998 0,12.674 0,0"
             style="fill:#014f2d;fill-opacity:1;fill-rule:nonzero;stroke:none"
             id="path70" />
        </g>
        <g
           id="g72"
           transform="translate(442.6899,226.2158)">
          <path
             d="M 0,0 30.97,-42.826 H 15.228 L -9.506,-8.688 -27.597,-25.145 v -17.681 h -12.776 v 71.547 h 12.776 V -7.87 l 10.528,9.607 9.505,8.688 19.93,18.296 h 18.909 z"
             style="fill:#014f2d;fill-opacity:1;fill-rule:nonzero;stroke:none"
             id="path74" />
        </g>
        <g
           id="g76"
           transform="translate(553.6914,254.9365)">
          <path
             d="m 0,0 v -71.547 h -12.776 v 45.586 l -12.572,-9.608 -10.425,-8.076 -10.426,8.076 -12.57,9.608 V -71.547 H -71.546 V 0 l 12.777,-9.813 22.996,-17.681 22.997,17.681 z"
             style="fill:#014f2d;fill-opacity:1;fill-rule:nonzero;stroke:none"
             id="path78" />
        </g>
        <g
           id="g80"
           transform="translate(574.6475,235.6191)">
          <path
             d="M 0,0 V -6.644 H 45.996 V -19.421 H 0 v -13.491 c 0,-3.577 2.965,-6.542 6.542,-6.542 H 58.771 V -52.229 H 6.542 c -10.63,0 -19.216,8.687 -19.216,19.317 V 0 c 0,10.63 8.586,19.317 19.216,19.317 H 58.771 V 6.542 H 6.542 C 2.965,6.542 0,3.577 0,0"
             style="fill:#014f2d;fill-opacity:1;fill-rule:nonzero;stroke:none"
             id="path82" />
        </g>
        <g
           id="g84"
           transform="translate(700.5723,196.0635)">
          <path
             d="m 0,0 v -12.775 h -36.283 c -3.577,0 -6.951,0.818 -10.017,2.35 -4.497,2.249 -8.177,5.929 -10.322,10.425 -1.534,3.066 -2.353,6.44 -2.353,10.017 v 48.754 h 12.777 V 8.791 c 0.614,-4.498 4.19,-8.074 8.688,-8.689 z"
             style="fill:#014f2d;fill-opacity:1;fill-rule:nonzero;stroke:none"
             id="path86" />
        </g>
        <g
           id="g88"
           transform="translate(757.2002,219.1631)">
          <path
             d="m 0,0 c 0,12.674 -10.324,22.998 -22.998,22.998 -12.674,0 -22.998,-10.324 -22.998,-22.998 0,-12.674 10.324,-22.998 22.998,-22.998 C -10.324,-22.998 0,-12.674 0,0 m 12.775,0 c 0,-19.727 -16.046,-35.773 -35.773,-35.773 -19.727,0 -35.773,16.046 -35.773,35.773 0,19.728 16.046,35.773 35.773,35.773 19.727,0 35.773,-16.045 35.773,-35.773"
             style="fill:#014f2d;fill-opacity:1;fill-rule:nonzero;stroke:none"
             id="path90" />
        </g>
        <g
           id="g92"
           transform="translate(847.25,254.835)">
          <path
             d="m 0,0 v -71.547 l -12.777,9.813 -45.994,35.465 v -45.278 h -12.776 v 71.342 l 12.776,-9.813 45.994,-35.466 V 0.102 Z"
             style="fill:#014f2d;fill-opacity:1;fill-rule:nonzero;stroke:none"
             id="path94" />
        </g>
        <g
           id="g96"
           transform="translate(801.5645,277.1855)">
          <path
             d="m 0,0 c 0,6.437 -5.242,11.682 -11.68,11.682 -6.436,0 -11.68,-5.245 -11.68,-11.682 0,-6.437 5.244,-11.681 11.68,-11.681 h 0.312 C -5.087,-11.524 0,-6.333 0,0 m 6.49,0 c 0,-4.464 -1.61,-8.514 -4.257,-11.681 H 6.49 v -6.488 h -17.962 -0.156 c -10.018,0 -18.169,8.15 -18.169,18.169 0,10.02 8.151,18.17 18.169,18.17 10.02,0 18.169,-8.15 18.169,-18.17 z"
             style="fill:#e56d00;fill-opacity:1;fill-rule:nonzero;stroke:none"
             id="path98" />
        </g>
        <g
           id="g100"
           transform="translate(847.25,259.0166)">
          <path
             d="M 0,0 H -7.268 L -10.59,6.488 -18.533,22.062 -26.476,6.488 -29.798,0 h -7.267 l 3.322,6.488 15.21,29.851 15.211,-29.851 z"
             style="fill:#e56d00;fill-opacity:1;fill-rule:nonzero;stroke:none"
             id="path102" />
        </g>
      </g>
    </g>
  </g>
</svg>
